<svg width="57" height="64" viewBox="0 0 57 64" fill="none" xmlns="http://www.w3.org/2000/svg">
<path fill-rule="evenodd" clip-rule="evenodd" d="M0.518013 47.4762L27.9744 63.3633L27.9736 63.3636L27.9753 63.3644L27.9809 63.3681L27.9874 63.3729L27.9938 63.3765L27.9946 63.3774L28.0011 63.3821L28.0084 63.3869L28.0129 63.3886L28.0157 63.3906L28.023 63.3954L28.0303 63.4001H28.0314L28.037 63.4038L28.0443 63.4086L28.0508 63.4114L28.0519 63.4122L28.0592 63.4159L28.0665 63.4207L28.0712 63.4223L28.0749 63.4243L28.0822 63.428L28.0895 63.4316H28.0912L28.0968 63.4353L28.1041 63.4389L28.1097 63.4409L28.1114 63.4417H28.1125L28.1198 63.4454L28.1282 63.4491L28.1318 63.4499L28.1355 63.4519L28.1428 63.4555L28.1464 63.4575L28.1512 63.4586L28.152 63.4595L28.1593 63.4623L28.1666 63.4651L28.1731 63.4671L28.1748 63.4679L28.1821 63.4707L28.1905 63.4735L28.1941 63.4746L28.1989 63.4763L28.2073 63.4791L28.2146 63.482H28.2166L28.223 63.4848L28.2314 63.4865L28.2379 63.4884L28.2399 63.4895L28.2483 63.4912L28.2567 63.494H28.2603L28.2651 63.496L28.2735 63.498L28.2819 63.5H28.2828L28.2901 63.5016L28.2993 63.5036L28.3058 63.5056H28.3075L28.3159 63.5073L28.3243 63.5092H28.328L28.3327 63.5104L28.342 63.512L28.3504 63.5132H28.3512L28.3585 63.5149L28.3678 63.516L28.3742 63.5168H28.3762L28.3855 63.5177L28.3891 63.5188L28.3975 63.5196H28.4031L28.4116 63.5208L28.4208 63.5216L28.4292 63.5224H28.4385L28.445 63.5236H28.4478H28.4562L28.4654 63.5244H28.4682H28.4747H28.4831H28.4924H28.5016H28.51H28.5165H28.5193L28.5286 63.5236H28.537H28.5398L28.5462 63.5224H28.5555L28.5639 63.5216L28.5732 63.5208L28.5816 63.5196H28.5872L28.5956 63.5188L28.5993 63.5177L28.6085 63.5168H28.6105L28.6169 63.516L28.6262 63.5149L28.6335 63.5132H28.6343L28.6427 63.512L28.652 63.5104L28.6568 63.5092H28.6604L28.6688 63.5073L28.6773 63.5056H28.6792L28.6857 63.5036L28.6949 63.5016L28.7022 63.5H28.7031L28.7115 63.498L28.7199 63.496L28.7244 63.494H28.728L28.7365 63.4912L28.7449 63.4895L28.7468 63.4884L28.7533 63.4865L28.7617 63.4848L28.7682 63.482H28.769L28.7774 63.4791L28.7858 63.4763L28.7906 63.4746L28.7943 63.4735L28.8027 63.4707L28.81 63.4679L28.8119 63.4671L28.8184 63.4651L28.8257 63.4623L28.833 63.4595L28.8338 63.4586L28.8375 63.4575L28.8422 63.4555L28.8495 63.4519L28.8532 63.4499L28.8568 63.4491L28.8652 63.4454L28.8725 63.4417H28.8734L28.8753 63.4409L28.881 63.4389L28.8882 63.4353L28.8939 63.4316H28.8958L28.9031 63.428L28.9104 63.4243L28.9141 63.4223L28.9188 63.4207L28.9261 63.4159L28.9334 63.4122L28.9343 63.4114L28.9407 63.4086L28.948 63.4038L28.9536 63.4001H28.9545L28.9618 63.3954L28.969 63.3906L28.9719 63.3886L28.9766 63.3869L28.9839 63.3821L28.9904 63.3774L28.9912 63.3765L28.9977 63.3729L29.0041 63.3681L29.0097 63.3644L29.0114 63.3636L56.4678 47.4765C56.7321 47.3458 56.9232 47.0941 56.9731 46.7933L56.9751 46.7859L56.9779 46.7637L56.9788 46.7629L56.9796 46.7488L56.9816 46.7396V46.7339L56.9827 46.719L56.9835 46.7162V46.7041L56.9855 46.6743L56.9863 46.6687V46.6594V46.6445V16.8777C56.9863 16.5119 56.7748 16.1973 56.4681 16.0463L29.0117 0.159222L29.01 0.158379L29.0044 0.154724L28.9979 0.150223L28.9915 0.146568L28.9907 0.145725L28.9842 0.140945L28.9769 0.137291L28.9721 0.13448L28.9693 0.13279L28.962 0.12801L28.9547 0.124355L28.9539 0.123512L28.9519 0.122669L28.9483 0.119858L28.941 0.116203L28.9345 0.112549L28.9337 0.111423L28.9264 0.107769L28.9191 0.104115L28.9143 0.101299L28.9107 0.100456L28.9034 0.0967979L28.8961 0.0931435L28.8941 0.0923004L28.8885 0.089489L28.8812 0.0858345L28.8739 0.08218H28.8731L28.8658 0.0785217L28.8574 0.0757141L28.8537 0.0737457L28.8501 0.0720558L28.8428 0.0692482L28.8344 0.0655899L28.8335 0.0647469L28.8262 0.0627785L28.8189 0.059967L28.8125 0.0571556L28.8105 0.0563126L28.8032 0.0534973L28.7948 0.0506897L28.7912 0.0498428L28.7864 0.0478745L28.778 0.045063L28.7696 0.0422554H28.7687L28.7623 0.0402832L28.7539 0.0374718L28.7474 0.0357857H28.7454L28.737 0.0329742L28.7286 0.0312843L28.725 0.030159L28.7205 0.0284767L28.712 0.0265045L28.7036 0.0245399H28.7028L28.6955 0.0225677L28.6862 0.0208855L28.6798 0.0189133H28.6778L28.6694 0.0169449L28.661 0.0152588H28.6573L28.6526 0.0141335L28.6433 0.0121689L28.6349 0.0113258H28.6341L28.6268 0.00935364L28.6175 0.00851059L28.611 0.00767136H28.6091L28.5998 0.00654221L28.5914 0.00569916L28.5878 0.00485611H28.5821L28.5737 0.00373077L28.5645 0.00288773L28.5561 0.00176239H28.5468L28.5403 0.000919342H28.5375H28.5291L28.5199 7.62939e-05H28.5171H28.5106H28.5022H28.4929H28.4837H28.4753H28.4688H28.466L28.4567 0.000919342H28.4483H28.4455L28.4391 0.00176239H28.4298L28.4214 0.00288773L28.4121 0.00373077L28.4037 0.00485611H28.3981L28.3944 0.00569916L28.386 0.00654221L28.3768 0.00767136H28.3748L28.3684 0.00851059L28.3591 0.00935364L28.3518 0.0113258H28.351L28.3425 0.0121689L28.3333 0.0141335L28.3285 0.0152588H28.3249L28.3165 0.0169449L28.308 0.0189133H28.3064L28.2999 0.0208855L28.2906 0.0225677L28.2833 0.0245399H28.2825L28.2741 0.0265045L28.2657 0.0284767L28.2609 0.030159L28.2573 0.0312843L28.2488 0.0329742L28.2404 0.0357857H28.2385L28.232 0.0374718L28.2236 0.0402832L28.2171 0.0422554H28.2152L28.2079 0.045063L28.1995 0.0478745L28.1947 0.0498428L28.191 0.0506897L28.1826 0.0534973L28.1753 0.0563126L28.1736 0.0571556L28.1672 0.059967L28.1599 0.0627785L28.1526 0.0647469L28.1518 0.0655899L28.1433 0.0692482L28.136 0.0720558L28.1324 0.0737457L28.1288 0.0757141L28.1203 0.0785217L28.113 0.08218H28.1119L28.1046 0.0858345L28.0973 0.089489L28.0917 0.0923004L28.09 0.0931435L28.0827 0.0967979L28.0754 0.100456L28.0718 0.101299L28.067 0.104115L28.0597 0.107769L28.0524 0.111423L28.0513 0.112549L28.0449 0.116203L28.0376 0.119858L28.0339 0.122669L28.0322 0.123512L28.0311 0.124355L28.0238 0.12801L28.0165 0.13279L28.0137 0.13448L28.0092 0.137291L28.0019 0.140945L27.9955 0.145725L27.9946 0.146568L27.9882 0.150223L27.9817 0.154724L27.9761 0.158379L27.9744 0.159222L0.518013 16.0463C0.253719 16.1767 0.0626564 16.4287 0.0127144 16.7295L0.0110283 16.7369L0.00822449 16.7591L0.00738144 16.7599L0.00654221 16.774L0.00457764 16.7832V16.7889L0.00373459 16.8038L0.00261307 16.8066V16.8187L0.000930786 16.8485L-0.000190735 16.8541V16.8634V16.878V46.6448C-0.000190735 47.0106 0.211353 47.3252 0.518013 47.4762ZM25.4752 34.8676C25.9969 35.4079 26.6597 35.8011 27.4004 35.9811V61.3369L3.29071 46.8694L24.8105 33.9557C24.9922 34.2899 25.2155 34.5969 25.4752 34.8676ZM54.7907 18.6175L54.791 18.6174H54.7907V18.6175ZM54.7907 18.6175L32.8731 31.5048C32.8802 31.6055 32.8838 31.7074 32.8838 31.8097L32.8783 32.0187L54.7907 44.9033V18.6175ZM24.1061 32.0042L24.1015 31.81C24.1015 31.7129 24.1051 31.6158 24.1113 31.5204L2.19344 18.6174V44.9033L24.1059 32.0039L24.1061 32.0042ZM25.4716 29.838C25.2338 30.0861 25.0235 30.3648 24.8512 30.6689L3.29071 17.7425L27.4004 3.28776V28.7219C26.6597 28.9009 25.9953 29.2954 25.4716 29.838ZM29.5876 27.629C30.3392 27.8053 31.0129 28.2019 31.5398 28.7485C31.776 28.9947 31.9832 29.271 32.1559 29.5713L53.6973 16.6512L29.5876 2.19011V27.629ZM31.5433 34.8513C31.7983 34.585 32.0192 34.2844 32.1979 33.9557L53.6973 46.8625L29.5876 61.3369V35.9755C30.3392 35.7991 31.0134 35.4012 31.5433 34.8513ZM26.9379 33.3144C27.3341 33.7096 27.8835 33.9541 28.4897 33.9541C29.0959 33.9541 29.6456 33.7088 30.0415 33.3144C30.437 32.9184 30.6816 32.3694 30.6816 31.7636C30.6816 31.1578 30.4361 30.6085 30.0415 30.2128C29.6453 29.8187 29.0959 29.5731 28.4897 29.5731C27.8835 29.5731 27.3339 29.8176 26.9379 30.2128C26.5436 30.6088 26.2981 31.1578 26.2981 31.7636C26.2981 32.3694 26.5427 32.9187 26.9379 33.3144Z" fill="white"/>
</svg>
