<svg width="73" height="82" viewBox="0 0 73 82" fill="none" xmlns="http://www.w3.org/2000/svg">
<path fill-rule="evenodd" clip-rule="evenodd" d="M0.663628 60.8172L35.8355 81.1686L35.8345 81.169L35.8366 81.1701L35.8438 81.1747L35.8521 81.1809L35.8603 81.1855L35.8614 81.1866L35.8697 81.1927L35.879 81.1989L35.8848 81.201L35.8884 81.2035L35.8977 81.2097L35.9071 81.2158H35.9085L35.9157 81.2205L35.925 81.2266L35.9333 81.2302L35.9347 81.2313L35.9441 81.236L35.9534 81.2421L35.9595 81.2443L35.9642 81.2468L35.9736 81.2515L35.9829 81.2561H35.9851L35.9922 81.2608L36.0016 81.2655L36.0088 81.268L36.0109 81.2691H36.0124L36.0217 81.2738L36.0325 81.2785L36.0372 81.2795L36.0418 81.2821L36.0512 81.2868L36.0559 81.2893L36.062 81.2907L36.063 81.2918L36.0724 81.2954L36.0817 81.299L36.09 81.3015L36.0922 81.3026L36.1015 81.3062L36.1123 81.3098L36.117 81.3112L36.1231 81.3134L36.1338 81.317L36.1432 81.3206H36.1457L36.154 81.3242L36.1648 81.3264L36.173 81.3289L36.1755 81.3303L36.1863 81.3325L36.1971 81.3361H36.2018L36.2079 81.3386L36.2187 81.3411L36.2295 81.3437H36.2305L36.2399 81.3458L36.2517 81.3483L36.26 81.3509H36.2622L36.2729 81.353L36.2837 81.3555H36.2884L36.2945 81.357L36.3064 81.3592L36.3171 81.3606H36.3182L36.3276 81.3628L36.3394 81.3642L36.3477 81.3653H36.3502L36.3621 81.3664L36.3667 81.3678L36.3775 81.3689H36.3847L36.3955 81.3703L36.4074 81.3714L36.4181 81.3725H36.43L36.4383 81.3739H36.4419H36.4526L36.4645 81.375H36.4681H36.4764H36.4871H36.499H36.5109H36.5216H36.5299H36.5335L36.5454 81.3739H36.5561H36.5597L36.568 81.3725H36.5799L36.5907 81.3714L36.6025 81.3703L36.6133 81.3689H36.6205L36.6313 81.3678L36.6359 81.3664L36.6478 81.3653H36.6503L36.6586 81.3642L36.6704 81.3628L36.6798 81.3606H36.6809L36.6916 81.3592L36.7035 81.357L36.7096 81.3555H36.7143L36.7251 81.353L36.7359 81.3509H36.7384L36.7466 81.3483L36.7585 81.3458L36.7678 81.3437H36.7689L36.7797 81.3411L36.7905 81.3386L36.7962 81.3361H36.8009L36.8117 81.3325L36.8225 81.3303L36.825 81.3289L36.8333 81.3264L36.844 81.3242L36.8523 81.3206H36.8534L36.8642 81.317L36.8749 81.3134L36.8811 81.3112L36.8857 81.3098L36.8965 81.3062L36.9058 81.3026L36.9084 81.3015L36.9166 81.299L36.926 81.2954L36.9353 81.2918L36.9364 81.2907L36.9411 81.2893L36.9472 81.2868L36.9565 81.2821L36.9612 81.2795L36.9659 81.2785L36.9767 81.2738L36.986 81.2691H36.9871L36.9896 81.268L36.9968 81.2655L37.0061 81.2608L37.0133 81.2561H37.0158L37.0252 81.2515L37.0345 81.2468L37.0392 81.2443L37.0453 81.2421L37.0546 81.236L37.064 81.2313L37.0651 81.2302L37.0733 81.2266L37.0827 81.2205L37.0899 81.2158H37.0909L37.1003 81.2097L37.1096 81.2035L37.1132 81.201L37.1193 81.1989L37.1287 81.1927L37.137 81.1866L37.138 81.1855L37.1463 81.1809L37.1546 81.1747L37.1617 81.1701L37.1639 81.169L72.3358 60.8175C72.6744 60.65 72.9191 60.3277 72.9831 59.9423L72.9856 59.9329L72.9892 59.9044L72.9903 59.9034L72.9914 59.8853L72.9939 59.8735V59.8663L72.9953 59.8472L72.9964 59.8436V59.8281L72.9989 59.7899L73 59.7827V59.7708V59.7517V21.6202C73 21.1516 72.729 20.7486 72.3362 20.5551L37.1643 0.203682L37.1621 0.202599L37.1549 0.197914L37.1467 0.192154L37.1384 0.187469L37.1373 0.186386L37.129 0.180267L37.1197 0.175583L37.1136 0.171982L37.11 0.169823L37.1007 0.163696L37.0913 0.159012L37.0902 0.157936L37.0877 0.156853L37.083 0.153252L37.0737 0.148567L37.0654 0.14389L37.0644 0.142448L37.055 0.137764L37.0457 0.133087L37.0396 0.129478L37.0349 0.128395L37.0255 0.123718L37.0162 0.119034L37.0137 0.11795L37.0065 0.114349L36.9971 0.109673L36.9878 0.104988H36.9867L36.9774 0.100304L36.9666 0.0967026L36.9619 0.0941849L36.9572 0.0920181L36.9479 0.0884171L36.9371 0.0837326L36.936 0.0826569L36.9267 0.0801315L36.9174 0.0765305L36.9091 0.0729294L36.9066 0.0718536L36.8972 0.0682449L36.8864 0.0646439L36.8818 0.0635681L36.8757 0.0610428L36.8649 0.0574417L36.8541 0.0538406H36.853L36.8448 0.0513153L36.834 0.0477219L36.8257 0.0455551H36.8232L36.8124 0.041954L36.8016 0.0397949L36.797 0.038353L36.7912 0.0361938L36.7804 0.0336685L36.7696 0.0311508H36.7686L36.7592 0.0286255L36.7474 0.0264664L36.7391 0.023941H36.7366L36.7258 0.0214233L36.715 0.0192642H36.7103L36.7042 0.0178223L36.6924 0.0153046L36.6816 0.0142212H36.6805L36.6712 0.0116959L36.6593 0.0106125L36.651 0.00953674H36.6485L36.6367 0.00809479L36.6259 0.00701904L36.6212 0.00593567H36.614L36.6032 0.00449371L36.5914 0.00341797L36.5806 0.00197601H36.5687L36.5605 0.000892639H36.5569H36.5461L36.5342 -0.000190735H36.5306H36.5224H36.5116H36.4997H36.4879H36.4771H36.4688H36.4652L36.4534 0.000892639H36.4426H36.439L36.4307 0.00197601H36.4189L36.4081 0.00341797L36.3962 0.00449371L36.3854 0.00593567H36.3782L36.3736 0.00701904L36.3628 0.00809479L36.3509 0.00953674H36.3484L36.3401 0.0106125L36.3283 0.0116959L36.3189 0.0142212H36.3179L36.3071 0.0153046L36.2952 0.0178223L36.2891 0.0192642H36.2844L36.2737 0.0214233L36.2629 0.023941H36.2607L36.2525 0.0264664L36.2406 0.0286255L36.2312 0.0311508H36.2302L36.2194 0.0336685L36.2086 0.0361938L36.2025 0.038353L36.1978 0.0397949L36.187 0.041954L36.1763 0.0455551H36.1737L36.1655 0.0477219L36.1547 0.0513153L36.1464 0.0538406H36.1439L36.1346 0.0574417L36.1238 0.0610428L36.1177 0.0635681L36.113 0.0646439L36.1022 0.0682449L36.0929 0.0718536L36.0907 0.0729294L36.0825 0.0765305L36.0731 0.0801315L36.0638 0.0826569L36.0627 0.0837326L36.0519 0.0884171L36.0426 0.0920181L36.0379 0.0941849L36.0332 0.0967026L36.0224 0.100304L36.0131 0.104988H36.0116L36.0023 0.109673L35.993 0.114349L35.9858 0.11795L35.9836 0.119034L35.9743 0.123718L35.9649 0.128395L35.9603 0.129478L35.9541 0.133087L35.9448 0.137764L35.9355 0.142448L35.934 0.14389L35.9257 0.148567L35.9164 0.153252L35.9117 0.156853L35.9096 0.157936L35.9081 0.159012L35.8988 0.163696L35.8895 0.169823L35.8859 0.171982L35.8801 0.175583L35.8708 0.180267L35.8625 0.186386L35.8614 0.187469L35.8531 0.192154L35.8449 0.197914L35.8377 0.202599L35.8355 0.203682L0.663628 20.5551C0.325066 20.7223 0.080307 21.045 0.0163345 21.4304L0.0141754 21.4398L0.010582 21.4682L0.00950623 21.4693L0.00843048 21.4873L0.00591278 21.4992V21.5064L0.00483704 21.5255L0.00339508 21.5291V21.5446L0.00123596 21.5828L-0.000198364 21.59V21.6018V21.6206V59.7521C-0.000198364 60.2207 0.270798 60.6237 0.663628 60.8172ZM32.634 44.6654C33.3023 45.3575 34.1513 45.8612 35.1002 46.0917V78.5728L4.21548 60.0397L31.7826 43.4973C32.0152 43.9254 32.3014 44.3186 32.634 44.6654ZM70.1874 23.8489L70.1878 23.8487H70.1874V23.8489ZM70.1874 23.8489L42.1108 40.3576C42.1199 40.4866 42.1244 40.6171 42.1244 40.7482L42.1174 41.0159L70.1874 57.5212V23.8489ZM30.8802 40.9974L30.8743 40.7486C30.8743 40.6242 30.8788 40.4998 30.8869 40.3776L2.80987 23.8487V57.5212L30.8799 40.997L30.8802 40.9974ZM32.6294 38.2224C32.3248 38.5402 32.0554 38.8972 31.8346 39.2869L4.21548 22.7279L35.1002 4.21136V36.7927C34.1513 37.022 33.3002 37.5273 32.6294 38.2224ZM37.902 35.3927C38.8649 35.6185 39.7278 36.1266 40.4028 36.8268C40.7053 37.1422 40.9709 37.496 41.192 37.8808L68.7867 21.3301L37.902 2.80526V35.3927ZM40.4073 44.6445C40.734 44.3034 41.017 43.9183 41.2458 43.4973L68.7867 60.0309L37.902 78.5728V46.0846C38.8649 45.8587 39.7285 45.349 40.4073 44.6445ZM34.5077 42.6757C35.0153 43.182 35.7191 43.4952 36.4956 43.4952C37.2721 43.4952 37.9763 43.1809 38.4835 42.6757C38.99 42.1685 39.3035 41.4652 39.3035 40.6891C39.3035 39.9131 38.989 39.2095 38.4835 38.7026C37.9759 38.1977 37.2721 37.8831 36.4956 37.8831C35.7191 37.8831 35.0149 38.1963 34.5077 38.7026C34.0026 39.2098 33.6881 39.9131 33.6881 40.6891C33.6881 41.4652 34.0015 42.1688 34.5077 42.6757Z" fill="#315D9E"/>
</svg>
